<svg width="282" height="820" viewBox="0 0 282 820" fill="none" xmlns="http://www.w3.org/2000/svg">
<path d="M0 723.64V226.288C11.8761 215.375 27.1225 206.227 45.739 198.844C54.7264 208.795 67.4049 217.461 83.7747 224.844C100.144 231.905 117.798 235.436 136.736 235.436C176.858 235.436 207.832 223.239 229.658 198.844C264.003 215.856 281.175 241.855 281.175 276.842V774.194C266.41 787.033 246.67 797.785 221.955 806.452C197.24 815.118 167.228 819.451 131.921 819.451C96.6137 819.451 66.6025 811.587 41.8873 795.859C13.9624 778.848 0 754.774 0 723.64ZM61.1459 31.2951C82.0093 10.4317 107.045 0 136.254 0C165.463 0 190.82 10.4317 212.325 31.2951C233.189 52.8005 243.621 78.3181 243.621 107.848C243.621 137.378 233.831 162.253 214.251 182.475C193.388 203.338 167.549 213.77 136.736 213.77C105.922 213.77 80.4044 203.499 60.183 182.956C39.9615 162.414 29.8507 137.378 29.8507 107.848C29.8507 78.3181 40.2825 52.8005 61.1459 31.2951Z" fill="#20D76D"/>
</svg>
