<svg width="2585" height="1000" viewBox="0 0 2585 1000" fill="none" xmlns="http://www.w3.org/2000/svg">
<path d="M2262.88 281.175V302.841C2250.04 329.482 2240.25 350.345 2233.51 365.431C2226.77 380.196 2223.4 390.307 2223.4 395.763C2223.4 405.071 2228.7 409.726 2239.29 409.726L2334.14 201.733C2356.28 187.289 2386.45 180.067 2424.65 180.067C2463.17 180.067 2496.23 190.66 2523.83 211.844C2554 235.596 2569.09 268.015 2569.09 309.1C2569.09 343.444 2557.37 377.307 2533.94 410.688C2510.51 443.749 2479.86 472.476 2441.98 496.87C2424.33 486.92 2408.44 481.945 2394.32 481.945C2380.2 481.945 2373.13 488.846 2373.13 502.648C2387.9 505.537 2401.22 509.71 2413.1 515.166C2425.29 520.302 2439.58 530.412 2455.95 545.498L2584.02 663.457C2574.71 767.453 2522.71 819.451 2428.02 819.451C2393.03 819.451 2363.02 810.464 2337.99 792.489C2308.46 771.626 2285.35 739.849 2268.66 697.159L2223.88 585.46H2221.47C2210.88 585.46 2205.58 589.953 2205.58 598.941C2205.58 604.718 2210.08 618.681 2219.07 640.828C2228.05 664.901 2241.53 696.999 2259.51 737.121V774.194C2225.81 804.365 2176.86 819.451 2112.66 819.451C2078 819.451 2048.31 811.587 2023.59 795.859C1995.67 778.848 1981.7 754.614 1981.7 723.158V226.288C2014.76 196.116 2065 181.03 2132.4 181.03C2167.39 181.03 2197.08 188.413 2221.47 203.178C2249.08 220.831 2262.88 246.83 2262.88 281.175Z" fill="#20D76D"/>
<path d="M1645.64 189.697H1923.45C1932.76 205.103 1939.66 221.955 1944.15 240.25C1948.64 258.225 1950.89 274.434 1950.89 288.878C1950.89 321.297 1944.47 345.691 1931.63 362.061C1919.11 378.43 1901.46 386.615 1878.67 386.615H1684.64C1672.77 386.615 1666.83 391.269 1666.83 400.578V404.429C1666.83 406.355 1667.15 407.639 1667.79 408.281H1897.93C1903.71 418.231 1908.68 430.749 1912.86 445.835C1916.71 462.205 1918.63 476.809 1918.63 489.649C1918.63 527.845 1911.57 557.695 1897.45 579.201H1792.97C1744.18 579.201 1711.12 581.127 1693.79 584.978C1676.46 588.509 1665.7 591.558 1661.53 594.126C1657.36 597.015 1655.27 600.706 1655.27 605.2C1655.27 609.693 1657.52 613.224 1662.01 615.792C1678.7 610.335 1696.2 606.484 1714.49 604.237C1738.57 601.99 1764.72 600.867 1792.97 600.867H1928.26C1947.84 628.471 1957.63 661.692 1957.63 700.53C1957.63 722.356 1954.9 743.219 1949.45 763.12C1943.99 783.02 1935.8 799.069 1924.89 811.266H1564.28C1524.47 811.266 1492.54 801.637 1468.46 782.378C1442.14 761.836 1428.98 731.664 1428.98 691.863V233.991C1428.98 218.584 1446.64 207.35 1481.95 200.289C1517.25 193.227 1571.82 189.697 1645.64 189.697Z" fill="#20D76D"/>
<path d="M1021.67 811.266C986.038 811.266 958.434 801.797 938.854 782.86C919.596 763.922 909.966 735.355 909.966 697.159V226.288C926.978 211.844 947.681 200.77 972.075 193.067C996.79 185.043 1022.31 181.03 1048.63 181.03C1087.47 181.03 1120.37 190.66 1147.33 209.918C1176.54 231.745 1191.14 261.916 1191.14 300.433V563.794C1173.17 565.399 1155.51 570.534 1138.18 579.201C1120.85 587.546 1112.18 596.212 1112.18 605.2C1112.18 610.656 1115.23 615.311 1121.33 619.162C1153.11 592.521 1200.29 579.201 1262.88 579.201H1376.99C1398.17 616.434 1408.76 654.47 1408.76 693.308C1408.76 712.566 1405.39 733.911 1398.65 757.342C1391.91 780.774 1382.92 798.748 1371.69 811.266H1021.67Z" fill="#20D76D"/>
<path d="M736.158 883.967C736.158 922.163 721.233 951.693 691.382 972.557C665.704 990.852 632.804 1000 592.682 1000C552.56 1000 520.302 991.334 495.908 974.001C471.513 956.989 459.316 933.237 459.316 902.744C459.316 872.252 471.353 849.944 495.426 835.821C505.697 840.636 517.413 843.043 530.573 843.043C548.548 843.043 557.535 837.747 557.535 827.155C557.535 825.229 557.374 824.105 557.053 823.784C477.131 821.537 407.8 804.686 349.061 773.231C324.988 738.244 312.951 702.776 312.951 666.827C312.951 630.557 325.309 600.546 350.024 576.793C374.739 553.041 405.071 541.165 441.021 541.165C477.291 541.165 506.821 548.548 529.61 563.312C552.72 578.077 569.732 602.151 580.645 635.532C591.237 633.606 596.533 628.31 596.533 619.644C596.533 610.656 593.645 600.706 587.867 589.793C582.411 578.559 574.226 567.967 563.313 558.016C534.746 532.338 496.068 519.499 447.28 519.499C423.207 519.499 400.738 523.511 379.875 531.536C357.728 520.302 340.074 502.488 326.914 478.093C313.754 453.699 307.174 427.379 307.174 399.133C307.174 325.309 337.988 268.336 399.615 228.214C452.576 193.869 517.894 176.697 595.571 176.697C653.346 176.697 701.974 182.956 741.454 195.474C780.934 207.671 813.192 223.399 838.228 242.658C845.611 263.842 849.302 285.829 849.302 308.618C849.302 331.407 846.253 352.11 840.154 370.727C834.056 389.344 825.229 404.269 813.674 415.503C802.76 407.479 783.02 399.294 754.454 390.948C725.887 382.603 699.888 378.43 676.456 378.43C653.025 378.43 637.297 379.875 629.273 382.764C621.57 385.652 617.718 390.146 617.718 396.245C617.718 399.133 618.199 401.862 619.162 404.429C630.396 401.541 644.84 400.096 662.494 400.096C725.084 400.096 776.119 414.861 815.599 444.391C862.141 479.698 885.412 532.659 885.412 603.274C885.412 646.285 872.573 685.123 846.895 719.788C821.217 754.454 784.625 780.934 737.121 799.23C727.813 787.996 717.702 778.848 706.789 771.786C695.875 764.725 686.407 761.194 678.382 761.194C667.469 761.194 661.852 766.009 661.531 775.638C711.282 794.896 736.158 831.006 736.158 883.967Z" fill="#20D76D"/>
<path d="M0 723.64V226.288C11.8761 215.375 27.1225 206.227 45.739 198.844C54.7264 208.795 67.4049 217.461 83.7747 224.844C100.144 231.905 117.798 235.436 136.736 235.436C176.858 235.436 207.832 223.239 229.658 198.844C264.003 215.856 281.175 241.855 281.175 276.842V774.194C266.41 787.033 246.67 797.785 221.955 806.452C197.24 815.118 167.228 819.451 131.921 819.451C96.6137 819.451 66.6025 811.587 41.8873 795.859C13.9624 778.848 0 754.774 0 723.64ZM61.1459 31.2951C82.0093 10.4317 107.045 0 136.254 0C165.463 0 190.82 10.4317 212.325 31.2951C233.189 52.8005 243.621 78.3181 243.621 107.848C243.621 137.378 233.831 162.253 214.251 182.475C193.388 203.338 167.549 213.77 136.736 213.77C105.922 213.77 80.4044 203.499 60.183 182.956C39.9615 162.414 29.8507 137.378 29.8507 107.848C29.8507 78.3181 40.2825 52.8005 61.1459 31.2951Z" fill="#20D76D"/>
</svg>
